<svg xmlns="http://www.w3.org/2000/svg" xmlns:xlink="http://www.w3.org/1999/xlink" viewBox="0 0 89 72">
  <defs>
    <path id="r_0" fill="none" d="M334.5 550.23c0-4 3.228-7.2207 7.2086-7.2207 3.980 0 7.207 3.233 7.207 7.2207"/>
    <path id="r_1" fill="none" d="M334.5 550.4c-3 0-5.36 2.46-5.36 5.5s2.4 5.5 5.36 5.5M348.9 550.4c2.96 0 5.36 2.46 5.36 5.5s-2.4 5.5-5.36 5.5M334.5 561.4h14.47"/>
  </defs>
  <g transform="matrix(3.19 0 0 3.19 -1044.4 -1729.5)" stroke="#d21f15" stroke-width="1.2">
    <use xlink:href="#r_0"/>
    <use xlink:href="#r_1"/>
    <path fill="none" d="m335.14 550.19 3.282 5.4764 3.282 5.4764 3.282-5.4764 3.282-5.4764h-6.5641z"/>
    <circle cx="348.4" cy="550" r="1.4" fill="#fff"/>
    <circle cx="335" cy="550" r="1.4" fill="#fff"/>
    <circle cx="341.7" cy="561.5" r="1.4" fill="#fff"/>
  </g>
</svg>